<?xml version="1.0" encoding="UTF-8" standalone="no"?>
<!-- Created with Inkscape (http://www.inkscape.org/) -->

<svg
   width="164.80934mm"
   height="129.84657mm"
   viewBox="0 0 164.80934 129.84657"
   version="1.1"
   id="svg5"
   xml:space="preserve"
   inkscape:version="1.2.1 (9c6d41e, 2022-07-14)"
   sodipodi:docname="site_skeleton.svg"
   inkscape:export-filename="site_skeleton.png"
   inkscape:export-xdpi="300"
   inkscape:export-ydpi="300"
   xmlns:inkscape="http://www.inkscape.org/namespaces/inkscape"
   xmlns:sodipodi="http://sodipodi.sourceforge.net/DTD/sodipodi-0.dtd"
   xmlns="http://www.w3.org/2000/svg"
   xmlns:svg="http://www.w3.org/2000/svg"><sodipodi:namedview
     id="namedview7"
     pagecolor="#505050"
     bordercolor="#eeeeee"
     borderopacity="1"
     inkscape:showpageshadow="0"
     inkscape:pageopacity="0"
     inkscape:pagecheckerboard="0"
     inkscape:deskcolor="#505050"
     inkscape:document-units="mm"
     showgrid="false"
     inkscape:zoom="1.829812"
     inkscape:cx="391.02378"
     inkscape:cy="216.14242"
     inkscape:window-width="2560"
     inkscape:window-height="1387"
     inkscape:window-x="0"
     inkscape:window-y="25"
     inkscape:window-maximized="1"
     inkscape:current-layer="layer1" /><defs
     id="defs2"><inkscape:path-effect
       effect="bspline"
       id="path-effect294"
       is_visible="true"
       lpeversion="1"
       weight="33.333333"
       steps="2"
       helper_size="0"
       apply_no_weight="true"
       apply_with_weight="true"
       only_selected="false" /><inkscape:path-effect
       effect="bspline"
       id="path-effect290"
       is_visible="true"
       lpeversion="1"
       weight="33.333333"
       steps="2"
       helper_size="0"
       apply_no_weight="true"
       apply_with_weight="true"
       only_selected="false" /></defs><g
     inkscape:label="Layer 1"
     inkscape:groupmode="layer"
     id="layer1"
     transform="translate(-18.98245,-43.322102)"><path
       style="fill:none;stroke:#000000;stroke-width:0.366001;stroke-linejoin:round"
       d="m 92.97517,57.838363 -1.590556,3.614899 -9.109541,10.989289 c -1.392503,1.679795 -1.684705,3.542974 -1.445961,5.494644 l 1.735151,42.222005 c -0.06387,3.11724 -0.282387,6.07983 -1.156767,8.38656 L 70.996592,162.5258"
       id="path526"
       sodipodi:nodetypes="ccccccc" /><path
       style="fill:none;stroke:#000000;stroke-width:0.366001;stroke-linejoin:round"
       d="m 91.202316,61.449092 c 2.080464,2.166995 6.099372,3.558612 12.269374,4.089792 h 35.8879"
       id="path528"
       sodipodi:nodetypes="ccc" /><path
       style="fill:none;stroke:#000000;stroke-width:0.7;stroke-linejoin:round;stroke-dasharray:none"
       d="m 124.84084,55.518899 0.30673,106.845761"
       id="path530" /><path
       style="fill:none;stroke:#000000;stroke-width:0.366001;stroke-linejoin:round"
       d="m 74.638666,150.50427 c 3.563058,2.35893 7.806704,4.39758 15.950182,4.60101 l 50.713392,-2.04489"
       id="path532"
       sodipodi:nodetypes="ccc" /><text
       xml:space="preserve"
       style="font-style:normal;font-variant:normal;font-weight:normal;font-stretch:normal;font-size:2.29306px;font-family:Arial;-inkscape-font-specification:'Arial, Normal';font-variant-ligatures:normal;font-variant-caps:normal;font-variant-numeric:normal;font-variant-east-asian:normal;fill:#000000;stroke:none;stroke-width:0.366001;stroke-linejoin:round"
       x="90.608681"
       y="153.17296"
       id="text588"><tspan
         sodipodi:role="line"
         id="tspan586"
         style="font-style:normal;font-variant:normal;font-weight:normal;font-stretch:normal;font-size:2.29306px;font-family:Arial;-inkscape-font-specification:'Arial, Normal';font-variant-ligatures:normal;font-variant-caps:normal;font-variant-numeric:normal;font-variant-east-asian:normal;fill:#000000;stroke:none;stroke-width:0.366"
         x="90.608681"
         y="153.17296">Towne Centre Dr</tspan></text><text
       xml:space="preserve"
       style="font-style:normal;font-variant:normal;font-weight:normal;font-stretch:normal;font-size:2.29306px;font-family:Arial;-inkscape-font-specification:'Arial, Normal';font-variant-ligatures:normal;font-variant-caps:normal;font-variant-numeric:normal;font-variant-east-asian:normal;fill:#000000;stroke:none;stroke-width:0.366001;stroke-linejoin:round"
       x="-110.60072"
       y="73.583717"
       id="text588-9"
       transform="rotate(-93.604836)"><tspan
         sodipodi:role="line"
         id="tspan719"
         x="-110.60072"
         y="73.583717">Towne Centre Blvd</tspan></text><text
       xml:space="preserve"
       style="font-style:normal;font-variant:normal;font-weight:normal;font-stretch:normal;font-size:2.29306px;font-family:Arial;-inkscape-font-specification:'Arial, Normal';font-variant-ligatures:normal;font-variant-caps:normal;font-variant-numeric:normal;font-variant-east-asian:normal;fill:#000000;stroke:none;stroke-width:0.366001;stroke-linejoin:round"
       x="107.06289"
       y="64.225327"
       id="text588-6"><tspan
         sodipodi:role="line"
         id="tspan732"
         x="107.06289"
         y="64.225327">1200 S</tspan></text><text
       xml:space="preserve"
       style="font-style:normal;font-variant:normal;font-weight:normal;font-stretch:normal;font-size:2.29306px;font-family:Arial;-inkscape-font-specification:'Arial, Normal';font-variant-ligatures:normal;font-variant-caps:normal;font-variant-numeric:normal;font-variant-east-asian:normal;fill:#000000;stroke:none;stroke-width:0.366001;stroke-linejoin:round"
       x="76.525345"
       y="-127.04374"
       id="text736"
       transform="rotate(90)"><tspan
         sodipodi:role="line"
         id="tspan734"
         style="fill:#000000;stroke:none;stroke-width:0.366"
         x="76.525345"
         y="-127.04374">University Ave</tspan></text><path
       style="fill:none;stroke:#000000;stroke-width:0.366001;stroke-linejoin:round;stroke-dasharray:2.19601, 0.366001;stroke-dashoffset:0"
       d="m 84.965385,101.34914 h 20.222665 v 8.15498 h 14.64279 V 84.351917 l -14.64279,0 V 68.810716 H 88.032726 l -3.067341,4.805502 z"
       id="path738"
       sodipodi:nodetypes="cccccccccc" /><path
       id="path5700"
       style="stroke-width:0.499999;stroke-linejoin:round"
       d="m 125.81137,65.649587 a 0.92737782,0.92737782 0 0 1 -0.92737,0.927378 0.92737782,0.92737782 0 0 1 -0.92738,-0.927378 0.92737782,0.92737782 0 0 1 0.92738,-0.927378 0.92737782,0.92737782 0 0 1 0.92737,0.927378 z" /><path
       id="path5886"
       style="stroke-width:0.499999;stroke-linejoin:round"
       d="m 92.172848,61.610919 a 0.92737782,0.92737782 0 0 1 -0.92737,0.927378 0.92737782,0.92737782 0 0 1 -0.92738,-0.927378 0.92737782,0.92737782 0 0 1 0.92738,-0.927378 0.92737782,0.92737782 0 0 1 0.92737,0.927378 z" /><path
       id="path5888"
       style="stroke-width:0.499999;stroke-linejoin:round"
       d="m 126.01586,153.73344 a 0.92737782,0.92737782 0 0 1 -0.92737,0.92737 0.92737782,0.92737782 0 0 1 -0.92738,-0.92737 0.92737782,0.92737782 0 0 1 0.92738,-0.92738 0.92737782,0.92737782 0 0 1 0.92737,0.92738 z" /><path
       id="path5890"
       style="stroke-width:0.499999;stroke-linejoin:round"
       d="m 75.609199,150.61498 a 0.92737782,0.92737782 0 0 1 -0.92737,0.92737 0.92737782,0.92737782 0 0 1 -0.92738,-0.92737 0.92737782,0.92737782 0 0 1 0.92738,-0.92738 0.92737782,0.92737782 0 0 1 0.92737,0.92738 z" /><g
       id="g6263"
       transform="translate(-128.70601,58.70594)"
       style="stroke:#800000" /></g></svg>
