<?xml version="1.0" encoding="UTF-8" standalone="no"?>
<!-- Created with Inkscape (http://www.inkscape.org/) -->

<svg
   width="164.80934mm"
   height="129.84657mm"
   viewBox="0 0 164.80934 129.84657"
   version="1.1"
   id="svg5"
   xml:space="preserve"
   inkscape:version="1.2.1 (9c6d41e, 2022-07-14)"
   sodipodi:docname="site_accesses.svg"
   inkscape:export-filename="../../images/reference/site_access.png"
   inkscape:export-xdpi="300"
   inkscape:export-ydpi="300"
   xmlns:inkscape="http://www.inkscape.org/namespaces/inkscape"
   xmlns:sodipodi="http://sodipodi.sourceforge.net/DTD/sodipodi-0.dtd"
   xmlns="http://www.w3.org/2000/svg"
   xmlns:svg="http://www.w3.org/2000/svg"><sodipodi:namedview
     id="namedview7"
     pagecolor="#424242"
     bordercolor="#eeeeee"
     borderopacity="1"
     inkscape:showpageshadow="0"
     inkscape:pageopacity="0"
     inkscape:pagecheckerboard="false"
     inkscape:deskcolor="#2b2b2b"
     inkscape:document-units="mm"
     showgrid="false"
     inkscape:zoom="2.5877449"
     inkscape:cx="267.22108"
     inkscape:cy="229.73671"
     inkscape:window-width="2560"
     inkscape:window-height="1387"
     inkscape:window-x="0"
     inkscape:window-y="25"
     inkscape:window-maximized="1"
     inkscape:current-layer="layer1" /><defs
     id="defs2"><marker
       style="overflow:visible"
       id="marker5449"
       refX="0"
       refY="0"
       orient="auto-start-reverse"
       inkscape:stockid="Arrow2"
       markerWidth="7.6999998"
       markerHeight="5.5999999"
       viewBox="0 0 7.7 5.6"
       inkscape:isstock="true"
       inkscape:collect="always"
       preserveAspectRatio="xMidYMid"><path
         transform="scale(0.7)"
         d="M -2,-4 9,0 -2,4 c 2,-2.33 2,-5.66 0,-8 z"
         style="fill:context-stroke;fill-rule:evenodd;stroke:none"
         id="path5447" /></marker><marker
       style="overflow:visible"
       id="Arrow2"
       refX="0"
       refY="0"
       orient="auto-start-reverse"
       inkscape:stockid="Arrow2"
       markerWidth="7.6999998"
       markerHeight="5.5999999"
       viewBox="0 0 7.7 5.6"
       inkscape:isstock="true"
       inkscape:collect="always"
       preserveAspectRatio="xMidYMid"><path
         transform="scale(0.7)"
         d="M -2,-4 9,0 -2,4 c 2,-2.33 2,-5.66 0,-8 z"
         style="fill:context-stroke;fill-rule:evenodd;stroke:none"
         id="arrow2L" /></marker><inkscape:path-effect
       effect="bspline"
       id="path-effect294"
       is_visible="true"
       lpeversion="1"
       weight="33.333333"
       steps="2"
       helper_size="0"
       apply_no_weight="true"
       apply_with_weight="true"
       only_selected="false" /><inkscape:path-effect
       effect="bspline"
       id="path-effect290"
       is_visible="true"
       lpeversion="1"
       weight="33.333333"
       steps="2"
       helper_size="0"
       apply_no_weight="true"
       apply_with_weight="true"
       only_selected="false" /></defs><g
     inkscape:label="Layer 1"
     inkscape:groupmode="layer"
     id="layer1"
     transform="translate(-18.98245,-43.322102)"><path
       style="fill:none;stroke:#000000;stroke-width:0.366001;stroke-linejoin:round"
       d="m 92.97517,57.838363 -1.590556,3.614899 -9.109541,10.989289 c -1.392503,1.679795 -1.684705,3.542974 -1.445961,5.494644 l 1.735151,42.222005 c -0.06387,3.11724 -0.282387,6.07983 -1.156767,8.38656 L 70.996592,162.5258"
       id="path526"
       sodipodi:nodetypes="ccccccc" /><path
       style="fill:none;stroke:#000000;stroke-width:0.366;stroke-linejoin:round;stroke-dasharray:none"
       d="m 91.202316,61.449092 c 2.080464,2.166995 6.099372,3.558612 12.269374,4.089792 h 35.8879"
       id="path528"
       sodipodi:nodetypes="ccc" /><path
       style="fill:none;stroke:#000000;stroke-width:0.7;stroke-linejoin:round;stroke-dasharray:none"
       d="m 124.84084,55.518899 0.30673,106.845761"
       id="path530" /><path
       style="fill:none;stroke:#000000;stroke-width:0.366001;stroke-linejoin:round"
       d="m 74.638666,150.50427 c 3.563058,2.35893 7.806704,4.39758 15.950182,4.60101 l 50.713392,-2.04489"
       id="path532"
       sodipodi:nodetypes="ccc" /><text
       xml:space="preserve"
       style="font-style:normal;font-variant:normal;font-weight:normal;font-stretch:normal;font-size:2.29306px;font-family:Arial;-inkscape-font-specification:'Arial, Normal';font-variant-ligatures:normal;font-variant-caps:normal;font-variant-numeric:normal;font-variant-east-asian:normal;fill:#000000;stroke:none;stroke-width:0.366001;stroke-linejoin:round"
       x="90.687607"
       y="152.79199"
       id="text588"><tspan
         sodipodi:role="line"
         id="tspan586"
         style="font-style:normal;font-variant:normal;font-weight:normal;font-stretch:normal;font-size:2.29306px;font-family:Arial;-inkscape-font-specification:'Arial, Normal';font-variant-ligatures:normal;font-variant-caps:normal;font-variant-numeric:normal;font-variant-east-asian:normal;fill:#000000;stroke:none;stroke-width:0.366"
         x="90.687607"
         y="152.79199">Towne Centre Dr</tspan></text><text
       xml:space="preserve"
       style="font-style:normal;font-variant:normal;font-weight:normal;font-stretch:normal;font-size:2.29306px;font-family:Arial;-inkscape-font-specification:'Arial, Normal';font-variant-ligatures:normal;font-variant-caps:normal;font-variant-numeric:normal;font-variant-east-asian:normal;fill:#000000;stroke:none;stroke-width:0.366001;stroke-linejoin:round"
       x="-110.60072"
       y="73.583717"
       id="text588-9"
       transform="rotate(-93.604836)"><tspan
         sodipodi:role="line"
         id="tspan719"
         x="-110.60072"
         y="73.583717">Towne Centre Blvd</tspan></text><text
       xml:space="preserve"
       style="font-style:normal;font-variant:normal;font-weight:normal;font-stretch:normal;font-size:2.29306px;font-family:Arial;-inkscape-font-specification:'Arial, Normal';font-variant-ligatures:normal;font-variant-caps:normal;font-variant-numeric:normal;font-variant-east-asian:normal;fill:#000000;stroke:none;stroke-width:0.366001;stroke-linejoin:round"
       x="107.69508"
       y="63.424076"
       id="text588-6"><tspan
         sodipodi:role="line"
         id="tspan732"
         x="107.69508"
         y="63.424076">1200 S</tspan></text><text
       xml:space="preserve"
       style="font-style:normal;font-variant:normal;font-weight:normal;font-stretch:normal;font-size:2.29306px;font-family:Arial;-inkscape-font-specification:'Arial, Normal';font-variant-ligatures:normal;font-variant-caps:normal;font-variant-numeric:normal;font-variant-east-asian:normal;fill:#000000;stroke:none;stroke-width:0.366001;stroke-linejoin:round"
       x="76.525345"
       y="-127.04374"
       id="text736"
       transform="rotate(90)"><tspan
         sodipodi:role="line"
         id="tspan734"
         style="fill:#000000;stroke:none;stroke-width:0.366"
         x="76.525345"
         y="-127.04374">University Ave</tspan></text><path
       style="fill:none;stroke:#000000;stroke-width:0.366001;stroke-linejoin:round;stroke-dasharray:2.19601, 0.366001;stroke-dashoffset:0"
       d="m 84.965385,101.34914 h 20.222665 v 8.15498 h 14.64279 V 84.351917 l -14.64279,0 V 68.810716 H 88.032726 l -3.067341,4.805502 z"
       id="path738"
       sodipodi:nodetypes="cccccccccc" /><path
       id="path5700"
       style="stroke-width:0.499999;stroke-linejoin:round"
       d="m 125.81137,65.649587 a 0.92737782,0.92737782 0 0 1 -0.92737,0.927378 0.92737782,0.92737782 0 0 1 -0.92738,-0.927378 0.92737782,0.92737782 0 0 1 0.92738,-0.927378 0.92737782,0.92737782 0 0 1 0.92737,0.927378 z" /><path
       id="path5886"
       style="stroke-width:0.499999;stroke-linejoin:round"
       d="m 92.172848,61.610919 a 0.92737782,0.92737782 0 0 1 -0.92737,0.927378 0.92737782,0.92737782 0 0 1 -0.92738,-0.927378 0.92737782,0.92737782 0 0 1 0.92738,-0.927378 0.92737782,0.92737782 0 0 1 0.92737,0.927378 z" /><path
       id="path5888"
       style="stroke-width:0.499999;stroke-linejoin:round"
       d="m 126.01586,153.73344 a 0.92737782,0.92737782 0 0 1 -0.92737,0.92737 0.92737782,0.92737782 0 0 1 -0.92738,-0.92737 0.92737782,0.92737782 0 0 1 0.92738,-0.92738 0.92737782,0.92737782 0 0 1 0.92737,0.92738 z" /><path
       id="path5890"
       style="stroke-width:0.499999;stroke-linejoin:round"
       d="m 75.609199,150.61498 a 0.92737782,0.92737782 0 0 1 -0.92737,0.92737 0.92737782,0.92737782 0 0 1 -0.92738,-0.92737 0.92737782,0.92737782 0 0 1 0.92738,-0.92738 0.92737782,0.92737782 0 0 1 0.92737,0.92738 z" /><g
       id="g6263"
       transform="translate(-128.70601,58.70594)"
       style="stroke:#800000" /><path
       style="fill:#000000;stroke:#000000;stroke-width:0.366;stroke-linecap:square;stroke-linejoin:bevel;stroke-dasharray:none;stroke-dashoffset:2.83465"
       d="m 99.739265,68.810716 c -0.01654,-1.24788 0.01096,-2.447773 0.214266,-3.705088"
       id="path842"
       sodipodi:nodetypes="cc" /><path
       style="fill:#000000;stroke:#000000;stroke-width:0.366001;stroke-linecap:square;stroke-linejoin:bevel;stroke-dasharray:none;stroke-dashoffset:2.83465"
       d="m 119.83084,104.8567 h 5.15164"
       id="path1570" /><g
       id="g6382"
       style="stroke:#00ffff"><g
         id="g6345"
         style="stroke:#00ffff"><path
           style="fill:none;stroke:#00ffff;stroke-width:0.266;stroke-linecap:square;stroke-linejoin:round;stroke-dasharray:none;stroke-dashoffset:2.83465;marker-start:url(#Arrow2)"
           d="m 118.72918,104.15771 h 5.22002 l -0.17893,-45.699025"
           id="path3925"
           sodipodi:nodetypes="ccc" /><path
           style="fill:none;stroke:#00ffff;stroke-width:0.266;stroke-linecap:square;stroke-linejoin:round;stroke-dasharray:none;stroke-dashoffset:2.83465"
           d="m 123.9492,104.15771 h 2.35956 l 0.20449,57.1908"
           id="path4508"
           sodipodi:nodetypes="ccc" /><path
           style="fill:none;stroke:#00ffff;stroke-width:0.266;stroke-linecap:square;stroke-linejoin:round;stroke-dasharray:none;stroke-dashoffset:2.83465"
           d="m 126.48158,152.49231 c 4.69264,-0.38169 9.29567,-0.49452 13.92529,-0.68713"
           id="path4510"
           sodipodi:nodetypes="cc" /><path
           id="path5391"
           style="fill:none;stroke:#00ffff;stroke-width:0.265999;stroke-linecap:square;stroke-linejoin:round;stroke-dasharray:none;stroke-dashoffset:2.83465;marker-start:url(#marker5449)"
           d="m 98.988265,69.92775 c 0,-1.917605 -0.189244,-2.373452 0.177867,-4.239123 -2.68798,-0.358803 -5.839269,-1.625407 -7.782197,-2.852279 L 89.418732,61.59541 c 1.055839,-1.16631 1.700435,-2.469702 2.331608,-3.777568"
           sodipodi:nodetypes="ccscc" /><path
           style="fill:none;stroke:#00ffff;stroke-width:0.265999;stroke-linecap:square;stroke-linejoin:round;stroke-dasharray:none;stroke-dashoffset:2.83465"
           d="m 91.383935,62.836348 -7.374392,9.055319 c -1.221538,1.499976 -2.398163,2.67575 -2.263698,5.710254 l 1.879748,42.420829 c 0.09602,2.16692 -0.448073,6.15229 -1.382433,9.17125 l -10.013267,32.35333"
           id="path5393"
           sodipodi:nodetypes="cssssc" /></g><path
         style="fill:none;stroke:#00ffff;stroke-width:0.265999;stroke-linecap:square;stroke-linejoin:round;stroke-dasharray:0.265999, 0.797997;stroke-dashoffset:0"
         d="m 75.889665,149.72243 c 2.831578,2.36227 11.608963,4.49995 13.94478,4.39629 l 36.647135,-1.62641"
         id="path5578"
         sodipodi:nodetypes="csc" /></g><g
       id="g6306"><g
         id="g6288"><path
           style="fill:none;stroke:#ff0000;stroke-width:0.265999;stroke-linecap:square;stroke-linejoin:round;stroke-dasharray:0.265999, 0.265999;stroke-dashoffset:0;marker-end:url(#Arrow2)"
           d="m 119.01938,105.50583 4.83344,0.0127 v 55.83209"
           id="path5616" /><path
           style="fill:none;stroke:#ff0000;stroke-width:0.265999;stroke-linecap:square;stroke-linejoin:round;stroke-dasharray:0.265999, 0.265999;stroke-dashoffset:0;marker-end:url(#Arrow2)"
           d="m 123.85282,155.64545 c 5.44572,-0.47331 10.89143,-0.6278 16.33715,-0.69531"
           id="path5774"
           sodipodi:nodetypes="cc" /><path
           style="fill:none;stroke:#ff0000;stroke-width:0.265999;stroke-linecap:square;stroke-linejoin:round;stroke-dasharray:0.265999, 0.265999;stroke-dashoffset:0;marker-end:url(#Arrow2)"
           d="m 123.85282,151.71481 -9.78048,0.37957"
           id="path5812" /></g><g
         id="g6269"><path
           style="fill:none;stroke:#ff0000;stroke-width:0.265999;stroke-linecap:square;stroke-linejoin:round;stroke-dasharray:0.265999, 0.265999;stroke-dashoffset:0;marker-end:url(#Arrow2)"
           d="m 100.5482,70.186909 v -4.140912 c 0.47515,0.171544 1.88111,0.289603 2.82769,0.3828 0.003,3.27e-4 0.006,4.1e-4 0.01,6.18e-4 7.84153,0.5116 23.0562,0.255612 23.0562,0.255612 l 0.0511,-6.67147"
           id="path5846"
           sodipodi:nodetypes="ccsscc" /><path
           style="fill:none;stroke:#ff0000;stroke-width:0.265999;stroke-linecap:round;stroke-linejoin:round;stroke-dasharray:none;stroke-dashoffset:0;marker-end:url(#Arrow2)"
           d="m 122.91028,66.726796 0.099,12.847129"
           id="path5956"
           sodipodi:nodetypes="cc" /><path
           style="fill:none;stroke:#ff0000;stroke-width:0.265999;stroke-linecap:butt;stroke-linejoin:round;stroke-dasharray:none;stroke-dashoffset:0;marker-end:;marker-start:url(#Arrow2)"
           d="m 94.027728,58.215482 -1.445961,3.18111 c 3.201608,1.129792 5.182626,2.541258 10.663953,3.144962 l 18.73423,0.08249 c 0.97382,0.0043 1.87944,1.125009 0.93033,2.102752"
           id="path6020"
           sodipodi:nodetypes="cccsc" /></g></g><g
       id="g6420"
       style="stroke:#0000ff"><g
         id="g6416"
         style="stroke:#0000ff"><path
           style="fill:none;stroke:#0000ff;stroke-width:0.266;stroke-linecap:square;stroke-linejoin:round;stroke-dasharray:none;stroke-dashoffset:2.83465;marker-start:url(#Arrow2)"
           d="m 118.72918,104.15771 h 5.22002 l -0.17893,-45.699025"
           id="path6406"
           sodipodi:nodetypes="ccc" /><path
           style="fill:none;stroke:#0000ff;stroke-width:0.266;stroke-linecap:square;stroke-linejoin:round;stroke-dasharray:none;stroke-dashoffset:2.83465"
           d="m 123.9492,104.15771 h 2.35956 l 0.20449,57.1908"
           id="path6408"
           sodipodi:nodetypes="ccc" /><path
           style="fill:none;stroke:#0000ff;stroke-width:0.266;stroke-linecap:square;stroke-linejoin:round;stroke-dasharray:none;stroke-dashoffset:2.83465"
           d="m 126.48158,152.49231 c 4.69264,-0.38169 9.29567,-0.49452 13.92529,-0.68713"
           id="path6410"
           sodipodi:nodetypes="cc" /><path
           id="path6412"
           style="fill:none;stroke:#0000ff;stroke-width:0.265999;stroke-linecap:square;stroke-linejoin:round;stroke-dasharray:none;stroke-dashoffset:2.83465;marker-start:url(#marker5449)"
           d="m 98.988265,69.92775 c 0,-1.917605 -0.189244,-2.373452 0.177867,-4.239123 -2.68798,-0.358803 -5.839269,-1.625407 -7.782197,-2.852279 L 89.418732,61.59541 c 1.055839,-1.16631 1.700435,-2.469702 2.331608,-3.777568"
           sodipodi:nodetypes="ccscc" /><path
           style="fill:none;stroke:#0000ff;stroke-width:0.265999;stroke-linecap:square;stroke-linejoin:round;stroke-dasharray:none;stroke-dashoffset:2.83465"
           d="m 91.383935,62.836348 -7.374392,9.055319 c -1.221538,1.499976 -2.398163,2.67575 -2.263698,5.710254 l 1.879748,42.420829 c 0.09602,2.16692 -0.448073,6.15229 -1.382433,9.17125 l -10.013267,32.35333"
           id="path6414"
           sodipodi:nodetypes="cssssc" /></g><path
         style="fill:none;stroke:#0000ff;stroke-width:0.265999;stroke-linecap:square;stroke-linejoin:round;stroke-dasharray:0.265999, 0.797997;stroke-dashoffset:0"
         d="m 75.889665,149.72243 c 2.831578,2.36227 11.608963,4.49995 13.94478,4.39629 l 36.647135,-1.62641"
         id="path6418"
         sodipodi:nodetypes="csc" /></g></g></svg>
